<svg id="Group_6" data-name="Group 6" xmlns="http://www.w3.org/2000/svg" width="111.271" height="82.187" viewBox="0 0 111.271 82.187">
  <path id="Path_3070" data-name="Path 3070" d="M746.382-607.1v4.29h-5.341V-617.18h-6.161l-2.855-7.057L718-629.865l-13.372-13.123H689.218L677.3-629.88l-14.637,1.849-9.352,10.851h-6.484v14.367h-5.354v-4.29h-3.181v11.767h3.181v-4.293h5.354v26.147h7.27A13.281,13.281,0,0,0,667.363-560.8,13.275,13.275,0,0,0,680.6-573.482H707.24A13.281,13.281,0,0,0,720.506-560.8a13.281,13.281,0,0,0,13.266-12.682h7.27v-26.147h5.341v4.293h3.181V-607.1Zm-82.107-17.922,14.592-1.847L690.629-639.8h12.7L716-627.368l13.579,5.582,1.862,4.606h-73.93Zm13.144,51.543a10.105,10.105,0,0,1-10.056,9.5,10.13,10.13,0,0,1-10.082-9.5,4.706,4.706,0,0,1-.026-.61,9.128,9.128,0,0,1,.345-2.574,10.132,10.132,0,0,1,9.763-7.535,10.078,10.078,0,0,1,9.737,7.535,9.128,9.128,0,0,1,.345,2.574A4.7,4.7,0,0,1,677.419-573.482Zm53.169,0a10.13,10.13,0,0,1-10.082,9.5,10.13,10.13,0,0,1-10.082-9.5,4.7,4.7,0,0,1-.027-.61,9.139,9.139,0,0,1,.345-2.574,10.133,10.133,0,0,1,9.764-7.535,10.133,10.133,0,0,1,9.764,7.535,9.139,9.139,0,0,1,.345,2.574A4.706,4.706,0,0,1,730.588-573.482Zm7.27-3.184h-4.3a13.323,13.323,0,0,0-13.053-10.719,13.323,13.323,0,0,0-13.054,10.719H680.39a13.315,13.315,0,0,0-13.027-10.719,13.322,13.322,0,0,0-13.053,10.719h-4.3V-614h87.846Z" transform="translate(-638.293 642.987)" fill="#858687"/>
  <rect id="Rectangle_14" data-name="Rectangle 14" width="3.182" height="14.984" transform="translate(27.467 35.884)" fill="#858687"/>
  <rect id="Rectangle_15" data-name="Rectangle 15" width="3.182" height="18.498" transform="translate(40.756 35.884)" fill="#858687"/>
  <rect id="Rectangle_16" data-name="Rectangle 16" width="3.182" height="18.498" transform="translate(67.334 35.884)" fill="#858687"/>
  <rect id="Rectangle_17" data-name="Rectangle 17" width="3.182" height="24.14" transform="translate(54.045 35.976)" fill="#858687"/>
  <rect id="Rectangle_18" data-name="Rectangle 18" width="3.182" height="14.984" transform="translate(80.623 35.976)" fill="#858687"/>
  <ellipse id="Ellipse_1" data-name="Ellipse 1" cx="2.392" cy="2.392" rx="2.392" ry="2.392" transform="translate(26.666 67.111)" fill="#858687"/>
  <ellipse id="Ellipse_2" data-name="Ellipse 2" cx="2.392" cy="2.392" rx="2.392" ry="2.392" transform="translate(79.822 67.111)" fill="#858687"/>
</svg>
