<svg xmlns="http://www.w3.org/2000/svg" width="81.032" height="89.146" viewBox="0 0 81.032 89.146">
  <g id="Group_20" data-name="Group 20" transform="translate(-769.002 641.682)">
    <path id="Path_3073" data-name="Path 3073" d="M835.844-622.464c-18.907-18.68-53.491-19.218-57.371-19.218l-2.055,0,.2,16.32,1.678-.033c.308-.006,31.47.033,46.118,14.54,5.047,4.995,7.5,11.109,7.5,18.685,0,7.432-2.46,13.525-7.116,17.624a24.436,24.436,0,0,1-16.24,5.718c-10.707,0-22.235-6.276-22.235-20.047v-1.664h-1.744v-3.075H771.7v3.075h-1.664v1.664c0,23.855,19.382,36.337,38.525,36.337a40.7,40.7,0,0,0,27-9.781c5.768-5.078,12.643-14.382,12.643-29.85C848.2-604.164,844.047-614.358,835.844-622.464Zm-2.482,57.649a37.374,37.374,0,0,1-24.8,8.954c-17.039,0-34.279-10.763-35.161-31.351h9.648c.885,14.9,13.635,21.711,25.513,21.711A27.757,27.757,0,0,0,827-572.048c5.394-4.748,8.244-11.706,8.244-20.119,0-8.511-2.776-15.4-8.483-21.054-13.65-13.514-39.895-15.255-46.864-15.469l-.111-9.651c7.313.155,37.1,1.819,53.722,18.245,7.546,7.457,11.37,16.853,11.37,27.928C844.876-577.941,838.615-569.441,833.362-564.815Z" transform="translate(1.83 0)" fill="#858687"/>
    <path id="Path_3074" data-name="Path 3074" d="M781.666-625.364v-3.328c-5.815,0-7.493,6.453-7.568,9.864l3.328.075C777.428-618.82,777.645-625.364,781.666-625.364Z" transform="translate(9.036 23.033)" fill="#858687"/>
    <path id="Path_3075" data-name="Path 3075" d="M776.57-618.828c-.075-3.411-1.753-9.864-7.568-9.864v3.328c4.021,0,4.24,6.545,4.24,6.611Z" transform="translate(0 23.033)" fill="#858687"/>
    <rect id="Rectangle_30" data-name="Rectangle 30" width="3.328" height="12.923" transform="translate(778.189 -608.683)" fill="#858687"/>
  </g>
</svg>
