<svg xmlns="http://www.w3.org/2000/svg" width="29.031" height="105.455" viewBox="0 0 29.031 105.455">
  <g id="Group_129" data-name="Group 129" transform="translate(0)">
    <path id="Path_110" data-name="Path 110" d="M215.844,403.322a3.392,3.392,0,0,1,3.387,3.387v59.9a5.809,5.809,0,0,1-5.8,5.8H198.892a5.808,5.808,0,0,1-5.8-5.8v-59.9a3.391,3.391,0,0,1,3.387-3.387Zm0-1.445H196.476a4.832,4.832,0,0,0-4.832,4.832v59.9a7.246,7.246,0,0,0,7.248,7.247h14.536a7.247,7.247,0,0,0,7.248-7.247v-59.9a4.832,4.832,0,0,0-4.832-4.832Z" transform="translate(-191.644 -368.4)" fill="#fff"/>
    <path id="Path_111" data-name="Path 111" d="M215.789,406.923H194.23l1.5-16.1a2.416,2.416,0,0,1,2.4-2.2h13.756a2.416,2.416,0,0,1,2.4,2.2Z" transform="translate(-190.493 -374.294)" fill="#fff"/>
    <path id="Path_112" data-name="Path 112" d="M208.392,380.154a3.39,3.39,0,0,1,3.387,3.386v7.215h-12.12v-3.667a6.287,6.287,0,0,0-5.579-6.238v-.7Zm0-1.445H192.635v3.546h.747a4.833,4.833,0,0,1,4.832,4.832V392.2h15.01v-8.66a4.831,4.831,0,0,0-4.832-4.831Z" transform="translate(-191.203 -378.709)" fill="#fff"/>
  </g>
</svg>
