<svg xmlns="http://www.w3.org/2000/svg" width="81.112" height="83.082" viewBox="0 0 81.112 83.082">
  <g id="Group_74" data-name="Group 74" transform="translate(-806.893 639.339)">
    <path id="Path_3138" data-name="Path 3138" d="M865.658-639.339c-11.109,0-22.35,2.6-22.35,7.586v3.686a58.494,58.494,0,0,0-14.067-1.556c-11.106,0-22.347,2.6-22.347,7.567v58.211c0,4.983,11.241,7.589,22.347,7.589s22.347-2.606,22.347-7.589v-3.686a59.38,59.38,0,0,0,14.07,1.556c11.106,0,22.347-2.6,22.347-7.564v-58.214C888.005-636.736,876.764-639.339,865.658-639.339Zm-17.119,17.282c0,.51-.89,1.206-2.377,1.865a20.146,20.146,0,0,1-2.754.986,52.607,52.607,0,0,1-14.167,1.661c-12.731,0-19.3-3.162-19.3-4.512s6.567-4.515,19.3-4.515a52.719,52.719,0,0,1,14.164,1.661,20.2,20.2,0,0,1,2.76.989C847.649-623.264,848.538-622.567,848.538-622.057Zm-5.057,5.964c.865-.22,1.752-.5,2.79-.862a16.466,16.466,0,0,0,2.267-1.063v54.173c0,1.358-6.567,4.537-19.3,4.537s-19.3-3.179-19.3-4.537v-54.176c3.79,2.179,11.142,3.529,19.3,3.529A57.973,57.973,0,0,0,843.481-616.094Zm22.177-11.145c-12.734,0-19.3-3.165-19.3-4.515,0-1.531,6.809-4.512,19.3-4.512,12.731,0,19.3,3.162,19.3,4.512S878.389-627.238,865.658-627.238Zm-19.3.113v-.592c3.79,2.182,11.142,3.529,19.3,3.529s15.505-1.347,19.3-3.529v54.179c0,1.35-6.564,4.515-19.3,4.515a52.625,52.625,0,0,1-14.07-1.636v-51.4C851.588-624.071,849.828-625.776,846.36-627.126Z" transform="translate(0)" fill="#858687"/>
    <path id="Path_3139" data-name="Path 3139" d="M823.076-633.884c-6.145,0-12.676.791-12.676,2.259s6.531,2.259,12.676,2.259,12.676-.791,12.676-2.259S829.219-633.884,823.076-633.884Z" transform="translate(6.153 9.571)" fill="#858687"/>
  </g>
</svg>
