<svg data-name="Group 158" xmlns="http://www.w3.org/2000/svg" width="35.537" height="27.12"><path data-name="Path 24" d="M27.46 0l-7.613 15.655H5.272L3.89 10.206h15.387l1.473-3.027H0l.767 3.027 1.382 5.449.767 3.027h18.823l7.618-15.655h6.18V0z" fill="#1d1d1e"/><path data-name="Path 25" d="M7.327 20.175a3.472 3.472 0 1 0 3.472 3.473 3.472 3.472 0 0 0-3.472-3.473zm0 4.422a.95.95 0 1 1 .95-.949.951.951 0 0 1-.95.949z" fill="#1d1d1e"/><path data-name="Path 26" d="M21.161 20.175a3.472 3.472 0 1 0 3.473 3.473 3.472 3.472 0 0 0-3.473-3.473zm0 4.422a.95.95 0 1 1 .95-.949.95.95 0 0 1-.95.949z" fill="#1d1d1e"/></svg>