<svg xmlns="http://www.w3.org/2000/svg" width="31.097" height="31.097"><path data-name="Path 207" d="M15.549 0a15.549 15.549 0 1 0 15.548 15.548A15.566 15.566 0 0 0 15.549 0zm3.538 12.383L23.74 7.73a11.365 11.365 0 0 1 2.158 3.209l-6.077 2.539a4.751 4.751 0 0 0-.735-1.095zm-.372-.372a4.771 4.771 0 0 0-1.122-.748l2.5-6.094a11.372 11.372 0 0 1 3.273 2.19zm-1.609-.949a4.724 4.724 0 0 0-1.294-.253V4.223a11.264 11.264 0 0 1 3.794.75zm-1.82-.253a4.722 4.722 0 0 0-1.322.264l-2.539-6.075a11.264 11.264 0 0 1 3.861-.775zm-1.808.467a4.747 4.747 0 0 0-1.1.735L7.725 7.358A11.369 11.369 0 0 1 10.934 5.2zm-1.465 1.107a4.749 4.749 0 0 0-.748 1.122l-6.094-2.5a11.371 11.371 0 0 1 2.19-3.273zm-.948 1.608a4.752 4.752 0 0 0-.254 1.294H4.223a11.247 11.247 0 0 1 .75-3.794zm-.252 1.825a4.741 4.741 0 0 0 .264 1.322l-6.075 2.539a11.256 11.256 0 0 1-.774-3.861zm.467 1.808a4.774 4.774 0 0 0 .735 1.1l-4.653 4.653a11.38 11.38 0 0 1-2.158-3.209zm1.107 1.467a4.752 4.752 0 0 0 1.122.748l-2.5 6.094a11.366 11.366 0 0 1-3.274-2.189zm1.609.948a4.725 4.725 0 0 0 1.294.253v6.586a11.251 11.251 0 0 1-3.794-.75zm1.821.253a4.721 4.721 0 0 0 1.322-.263l2.539 6.074a11.251 11.251 0 0 1-3.861.775zm1.808-.467a4.744 4.744 0 0 0 1.1-.735l4.653 4.653a11.378 11.378 0 0 1-3.209 2.158zm1.467-1.107a4.745 4.745 0 0 0 .748-1.122l6.1 2.5a11.367 11.367 0 0 1-2.19 3.273zm.948-1.609a4.728 4.728 0 0 0 .253-1.294h6.586a11.266 11.266 0 0 1-.75 3.794zm.253-1.821a4.726 4.726 0 0 0-.263-1.322l6.075-2.538a11.263 11.263 0 0 1 .775 3.861z" fill="#e83f8b"/></svg>