<svg xmlns="http://www.w3.org/2000/svg" width="35.537" height="35.04"><g data-name="Group 711"><path data-name="Path 27" d="M25.188 3.776a2.855 2.855 0 0 0-3.816 1.317l-3.81 7.821-.152-.073a5.6 5.6 0 0 0-7.485 2.577 1.3 1.3 0 0 0 .6 1.738l7.98 3.889a1.3 1.3 0 0 0 1.739-.6l6.261-12.851a2.855 2.855 0 0 0-1.317-3.818z" fill="#e83f8b"/><path data-name="Path 28" d="M17.822 21.31l-6.293-3.065a.7.7 0 1 0-.613 1.258l6.293 3.066a.7.7 0 1 0 .613-1.258z" fill="#e83f8b"/><path data-name="Path 24" d="M27.459 7.92l-7.613 15.655H5.271l-1.382-5.449h15.387l1.473-3.027H-.001l.767 3.027 1.382 5.449.767 3.027h18.823l7.618-15.655h6.18V7.92z" fill="#fff"/><path data-name="Path 25" d="M7.326 28.095a3.472 3.472 0 1 0 3.472 3.473 3.472 3.472 0 0 0-3.472-3.473zm0 4.422a.95.95 0 1 1 .95-.949.951.951 0 0 1-.95.949z" fill="#fff"/><path data-name="Path 26" d="M21.16 28.095a3.472 3.472 0 1 0 3.473 3.473 3.472 3.472 0 0 0-3.473-3.473zm0 4.422a.95.95 0 1 1 .95-.949.95.95 0 0 1-.95.949z" fill="#fff"/></g></svg>