<svg xmlns="http://www.w3.org/2000/svg" width="32.685" height="43.861"><g data-name="Group 408" fill="#e83f8b"><path data-name="Path 223" d="M12.877 9.442l-4.58-4.58h2.55V.001H0V10.85h4.861V8.3l4.594 4.594a12.586 12.586 0 0 1 3.422-3.452z"/><path data-name="Path 224" d="M32.686 19.908a12.686 12.686 0 0 0-12.684-12.67 12.725 12.725 0 0 0-10.549 5.655 12.886 12.886 0 0 0-1.563 3.283 12.68 12.68 0 0 0 9.686 16.164v3.229H12.79v4.86h4.786v3.434h4.861V40.43h4.785v-4.86h-4.785v-3.229a12.694 12.694 0 0 0 10.249-12.433zm-3.609-2.121l1.047 1.047 1.026-1.02.972.972-1.02 1.02 1.006 1.013-.924.931-1.006-1.006-1.04 1.026-.973-.972 1.04-1.033-1.06-1.054zm-9.074 9.938a7.813 7.813 0 1 1 7.817-7.817 7.824 7.824 0 0 1-7.818 7.817z"/></g></svg>