<svg xmlns="http://www.w3.org/2000/svg" xmlns:xlink="http://www.w3.org/1999/xlink" width="249.564" height="68.15" viewBox="0 0 249.564 68.15">
  <defs>
    <linearGradient id="linear-gradient" x1="-0.276" y1="2.995" x2="1.09" y2="-1.605" gradientUnits="objectBoundingBox">
      <stop offset="0" stop-color="#762cff"/>
      <stop offset="0.089" stop-color="#7a2bfc"/>
      <stop offset="0.18" stop-color="#862af5"/>
      <stop offset="0.272" stop-color="#9b27e8"/>
      <stop offset="0.365" stop-color="#b724d7"/>
      <stop offset="0.458" stop-color="#dc20c1"/>
      <stop offset="0.531" stop-color="#ff1cad"/>
      <stop offset="0.561" stop-color="#ff229d"/>
      <stop offset="0.632" stop-color="#ff3080"/>
      <stop offset="0.707" stop-color="#ff3a69"/>
      <stop offset="0.789" stop-color="#ff4259"/>
      <stop offset="0.879" stop-color="#ff4650"/>
      <stop offset="1" stop-color="#ff484d"/>
    </linearGradient>
    <linearGradient id="linear-gradient-2" x1="0.162" y1="2.076" x2="1.298" y2="-2.524" xlink:href="#linear-gradient"/>
    <linearGradient id="linear-gradient-3" x1="-0.352" y1="2.765" x2="1.552" y2="-1.835" xlink:href="#linear-gradient"/>
  </defs>
  <g id="Group_61" data-name="Group 61" transform="translate(66.218 -868.792)">
    <g id="Group_59" data-name="Group 59" transform="translate(0.895 868.792)">
      <path id="Path_3121" data-name="Path 3121" d="M-4.285,878.957l11.514-4.24v36.7H-4.285v-3.607a12.015,12.015,0,0,1-9.933,4.619,16.116,16.116,0,0,1-6.516-1.3,15.685,15.685,0,0,1-5.188-3.637,16.773,16.773,0,0,1-3.448-5.5,18.82,18.82,0,0,1-1.232-6.9,18.256,18.256,0,0,1,1.2-6.61,16.95,16.95,0,0,1,3.352-5.472,15.805,15.805,0,0,1,5.124-3.7,15.64,15.64,0,0,1,6.58-1.36,13.223,13.223,0,0,1,10.059,4.238Zm-14.425,16.132a7.524,7.524,0,0,0,.571,2.942,7.539,7.539,0,0,0,1.549,2.373,6.953,6.953,0,0,0,2.34,1.581,7.526,7.526,0,0,0,2.942.569,7.373,7.373,0,0,0,2.879-.569,6.953,6.953,0,0,0,2.34-1.581,8.185,8.185,0,0,0,1.581-2.34,6.819,6.819,0,0,0,.6-2.847,7.028,7.028,0,0,0-.6-2.877,8.06,8.06,0,0,0-1.581-2.372,6.954,6.954,0,0,0-2.34-1.583,7.4,7.4,0,0,0-2.879-.569,7.557,7.557,0,0,0-2.942.569,6.954,6.954,0,0,0-2.34,1.583,7.787,7.787,0,0,0-1.549,2.308A6.912,6.912,0,0,0-18.711,895.089Z" transform="translate(30.603 -863.552)" fill="#fff"/>
      <path id="Path_3122" data-name="Path 3122" d="M13.829,885.706a12.905,12.905,0,0,0-5.972-1.585,4.493,4.493,0,0,0-2.469.609,1.872,1.872,0,0,0-.946,1.645,2.139,2.139,0,0,0,.153.884,1.555,1.555,0,0,0,.671.641,5.854,5.854,0,0,0,1.523.55q1.006.243,2.653.609a12.68,12.68,0,0,1,6.827,3.26,8.321,8.321,0,0,1,2.254,6.006,10.859,10.859,0,0,1-1.1,4.935,10.486,10.486,0,0,1-3.049,3.688,14.415,14.415,0,0,1-4.692,2.316,20.873,20.873,0,0,1-6.034.823,24.526,24.526,0,0,1-12.5-3.6l4.023-7.8a15.7,15.7,0,0,0,8.778,3.172,4.329,4.329,0,0,0,2.5-.671,2.007,2.007,0,0,0,.974-1.707,2.842,2.842,0,0,0-.153-1.006,1.647,1.647,0,0,0-.639-.731,5.16,5.16,0,0,0-1.434-.609q-.944-.274-2.467-.581-5.122-1.034-7.163-3.077a7.611,7.611,0,0,1-2.041-5.638,11.1,11.1,0,0,1,.974-4.724,9.769,9.769,0,0,1,2.8-3.565,13.179,13.179,0,0,1,4.419-2.256A19.656,19.656,0,0,1,7.49,876.5a26.111,26.111,0,0,1,10.057,2.011Z" transform="translate(49.847 -861.972)" fill="#fff"/>
      <path id="Path_3123" data-name="Path 3123" d="M19.7,873.237v22.47l12.273-11.951H47.994l-16.6,15.311L48.965,916.9H32.555L19.7,903.4v13.5H8.007v-48.1Z" transform="translate(64.75 -868.792)" fill="#fff"/>
      <path id="Path_3124" data-name="Path 3124" d="M38.572,895.155q0,7.129,6.7,7.131a5.988,5.988,0,0,0,5.425-2.927H61.367q-3.231,10.73-16.151,10.728a21.236,21.236,0,0,1-7.253-1.187,16.214,16.214,0,0,1-5.64-3.384,15.068,15.068,0,0,1-3.626-5.242,17.451,17.451,0,0,1-1.28-6.825,19.329,19.329,0,0,1,1.217-7.04,14.833,14.833,0,0,1,3.475-5.335,15.389,15.389,0,0,1,5.455-3.381,20.617,20.617,0,0,1,7.223-1.189,20.19,20.19,0,0,1,7.132,1.189,14.416,14.416,0,0,1,5.363,3.443,14.989,14.989,0,0,1,3.352,5.516A21.842,21.842,0,0,1,61.8,894v1.159Zm12.921-6.4a6.637,6.637,0,0,0-2.256-3.718,6.992,6.992,0,0,0-8.32-.06,6.054,6.054,0,0,0-2.041,3.778Z" transform="translate(81.917 -861.972)" fill="#fff"/>
      <path id="Path_3125" data-name="Path 3125" d="M47.851,875.056l11.58,4.349v4.159a12.672,12.672,0,0,1,4.8-3.87,15.03,15.03,0,0,1,5.693-.991,14.253,14.253,0,0,1,5.917,1.119,11.794,11.794,0,0,1,4.191,3.168,9.141,9.141,0,0,1,1.92,3.71,19.348,19.348,0,0,1,.511,4.67v20.857H70.882v-16.57a18.027,18.027,0,0,0-.35-3.935,4.881,4.881,0,0,0-1.249-2.4,4.369,4.369,0,0,0-1.726-1.087,6.452,6.452,0,0,0-2.048-.32A5.718,5.718,0,0,0,61,889.675a7.3,7.3,0,0,0-1.568,5.022v17.529H47.851Z" transform="translate(99.988 -863.252)" fill="#fff"/>
    </g>
    <path id="Path_3126" data-name="Path 3126" d="M-17.944,883.63l4.32,6.212,10.4-15.033H-56.883l-.585.026-6.122,8.8Z" transform="translate(2.324 5.321)" fill="url(#linear-gradient)"/>
    <path id="Path_3127" data-name="Path 3127" d="M6.347,912.012l-10.4-15.033-4.32,6.213H-66.218l6.127,8.82Z" transform="translate(0 24.929)" fill="url(#linear-gradient-2)"/>
    <path id="Path_3128" data-name="Path 3128" d="M-14.222,899.783l-10.4-15.033-4.319,6.212h-28.6l6.068,8.821Z" transform="translate(7.671 14.113)" fill="url(#linear-gradient-3)"/>
    <g id="Group_60" data-name="Group 60" transform="translate(-64.132 878.77)">
      <path id="Path_3129" data-name="Path 3129" d="M-16.837,882.908l4.32,6.212,10.4-15.033H-55.776l-.585.026-6.122,8.8Z" transform="translate(67.435 -874.087)" fill="#fff"/>
      <path id="Path_3130" data-name="Path 3130" d="M7.454,911.291l-10.4-15.033-4.32,6.213H-65.111l6.127,8.82Z" transform="translate(65.111 -854.479)" fill="#fff"/>
      <path id="Path_3131" data-name="Path 3131" d="M-13.115,899.061l-10.4-15.033-4.319,6.212h-28.6l6.068,8.821Z" transform="translate(72.783 -865.295)" fill="#fff"/>
    </g>
  </g>
</svg>
