<svg xmlns="http://www.w3.org/2000/svg" viewBox="0 0 402.98 96.64"><defs><style>.cls-1{fill:#055fe0;}.cls-2{fill:none;}.cls-3{fill:#ef3f87;}</style></defs><title>Ресурс 1</title><g id="Слой_2" data-name="Слой 2"><g id="Слой_1-2" data-name="Слой 1"><path class="cls-1" d="M359.34,20.8h0l-10.1-10.09h5.62V0H331V23.9h10.71V18.29L351.8,28.41A27.86,27.86,0,0,1,359.34,20.8Z"/><polygon class="cls-2" points="393.02 45.83 395.16 47.97 397.45 45.7 399.68 47.93 401.72 45.87 399.49 43.64 401.74 41.39 399.6 39.25 397.35 41.5 395.03 39.19 392.98 41.22 395.31 43.55 393.02 45.83"/><path class="cls-2" d="M379.9,41.33a2,2,0,0,0,2.2-1.89,2.18,2.18,0,1,0-2.2,1.89Z"/><path class="cls-2" d="M392.27,43.86a17.22,17.22,0,1,0-17.22,17.22A17.23,17.23,0,0,0,392.27,43.86Zm-22,10h-4.66V42.36L363.93,44l-3.28-3.26L367,33.76h3.23Zm9.65.4c-3.77,0-7.54-2.17-7.54-6.54a4.75,4.75,0,0,1,2.91-4.37,4.16,4.16,0,0,1-2.2-3.86c0-4.14,3.51-6.14,6.94-6.11s6.74,2.08,6.74,6.14a4.53,4.53,0,0,1-2.2,3.77,4.76,4.76,0,0,1,3,4.43C387.52,52.13,383.7,54.3,379.9,54.3Z"/><path class="cls-2" d="M380.07,45.62c-1.43,0-2.89.68-2.89,2.14S378.58,50,380,50s2.69-.79,2.69-2.22S381.38,45.64,380.07,45.62Z"/><path class="cls-3" d="M268.53,63.42a10,10,0,0,0-5.69,0,4.85,4.85,0,0,0-3.5,3.49c-.14.49-.21,1-.31,1.5v1.33l.09.48a5.1,5.1,0,0,0,3.56,4.52,9.53,9.53,0,0,0,5.88.05A4.84,4.84,0,0,0,272,71.16a8.35,8.35,0,0,0,.07-3.82A4.8,4.8,0,0,0,268.53,63.42Z"/><path class="cls-1" d="M307.72,49.68l-6.92-7.76L288.67,54.63l-.11,0V33.73l-10.9,1.06V74.12h10.92V73.6c0-2.6,0-5.21,0-7.81a.69.69,0,0,1,.14-.48c1-.89,2.1-1.75,3.19-2.65l8.78,13.4,8.93-6.49L298.84,57Z"/><path class="cls-1" d="M329,64.73,342.6,52.3a.8.8,0,0,0,.29-.69V43.73l-28.47-1.06V53.62l14-.48-.39.37q-7.15,6.24-14.3,12.48a1.14,1.14,0,0,0-.44,1c0,2.23,0,4.46,0,6.69v.51l29.56,1.07c.18-3.54.36-7,.53-10.58L328.68,65Z"/><path class="cls-3" d="M403,43.86a28,28,0,0,0-27.93-27.92,27.59,27.59,0,0,0-15.7,4.86h0a27.86,27.86,0,0,0-7.54,7.61h0a27.91,27.91,0,0,0,17.89,42.85v7.11H359.15V89.08h10.54v7.56H380.4V89.08h10.54V78.37H380.4V71.26A28,28,0,0,0,403,43.86Zm-8-4.67,2.32,2.31,2.25-2.25,2.14,2.14-2.25,2.25,2.23,2.23-2,2.06-2.23-2.23L395.16,48,393,45.83l2.29-2.27L393,41.22Zm-20,21.89a17.22,17.22,0,1,1,17.22-17.22A17.24,17.24,0,0,1,375.05,61.08Z"/><polygon class="cls-1" points="360.65 40.7 363.94 43.96 365.59 42.36 365.59 53.9 370.25 53.9 370.25 33.76 367.02 33.76 360.65 40.7"/><path class="cls-1" d="M384.55,43.33a4.53,4.53,0,0,0,2.2-3.77c0-4.06-3.34-6.11-6.74-6.14s-6.91,2-6.94,6.11a4.16,4.16,0,0,0,2.2,3.86,4.75,4.75,0,0,0-2.91,4.37c0,4.37,3.77,6.54,7.54,6.54s7.62-2.17,7.62-6.54A4.76,4.76,0,0,0,384.55,43.33Zm-4.65-5.66a1.94,1.94,0,0,1,2.2,1.77,2,2,0,0,1-2.2,1.89,1.85,1.85,0,1,1,0-3.66ZM380,50c-1.4,0-2.8-.71-2.8-2.22s1.46-2.17,2.89-2.14,2.6.74,2.6,2.14S381.33,50,380,50Z"/><path class="cls-1" d="M181.76,46.34l10.19-1v.59c0,3.69,0,7.38,0,11.08a9.26,9.26,0,0,0,.45,3.26,3.13,3.13,0,0,0,3.19,2.25,8.06,8.06,0,0,0,1.76-.21,2.88,2.88,0,0,0,2.27-2.46,15.84,15.84,0,0,0,.3-2.74c0-3.38,0-6.76,0-10.14v-.64l10.16-1a2.3,2.3,0,0,1,.05.32c0,8.46,0,16.91-.05,25.37a16.33,16.33,0,0,1-2.48,8.84,11.67,11.67,0,0,1-8.5,5.26,28.43,28.43,0,0,1-8-.11,39.85,39.85,0,0,1-9.79-2.47c-.51-.21-1-.44-1.55-.69,1.19-3.11,2.38-6.18,3.56-9.27a24.48,24.48,0,0,0,8.43,3.07,18.78,18.78,0,0,0,3.74.26,4.18,4.18,0,0,0,4-3.15,17.39,17.39,0,0,0,.39-5.53,8.72,8.72,0,0,1-2.24,2.48,10.08,10.08,0,0,1-5.35,1.83,14.33,14.33,0,0,1-4.23-.29,7.21,7.21,0,0,1-5.55-5.5,19.93,19.93,0,0,1-.76-5.42c0-4.55,0-9.1,0-13.65C181.73,46.57,181.75,46.47,181.76,46.34Z"/><path class="cls-1" d="M124.56,62.33c2.18.91,4.29,1.87,6.46,2.67a35.52,35.52,0,0,0,8.68,2,17.71,17.71,0,0,0,3-.06.94.94,0,0,0,.93-.87,1,1,0,0,0-.69-1.18,26.41,26.41,0,0,0-3.12-.9c-2.69-.56-5.41-1-8.09-1.61a17.64,17.64,0,0,1-5.36-2.09,8.76,8.76,0,0,1-4.49-8.24,12.45,12.45,0,0,1,8.47-11.82,22.92,22.92,0,0,1,10-1.23,17.3,17.3,0,0,1,7.14,2,9.9,9.9,0,0,1,5.21,6.16,10.66,10.66,0,0,1-.13,5.52.59.59,0,0,1-.41.36c-3.36,0-6.72,0-10.09,0a.62.62,0,0,1-.16,0,9.08,9.08,0,0,0,.25-1.24A3.67,3.67,0,0,0,139.73,48a6.1,6.1,0,0,0-4.76.15A3.12,3.12,0,0,0,133,51a2.33,2.33,0,0,0,1.41,2.45,17.33,17.33,0,0,0,3.29,1c2.44.49,4.91.83,7.34,1.32a17.3,17.3,0,0,1,4.91,1.77,7.81,7.81,0,0,1,4.31,7,12.76,12.76,0,0,1-.5,4.35,8.72,8.72,0,0,1-5.68,5.64,21.76,21.76,0,0,1-6.88,1.23A37.57,37.57,0,0,1,123,71.73c-1-.48-1-.5-.69-1.56l2.13-7.56C124.51,62.49,124.55,62.36,124.56,62.33Z"/><path class="cls-3" d="M99.86,63.12a5,5,0,0,0,2.58,3.46,7,7,0,0,0,3,.7,24.89,24.89,0,0,0,10.09-1.84l.24-.07c.27,1.08.53,2.14.8,3.2l.93,3.84c.16.68.17.68-.49,1a27.4,27.4,0,0,1-6.75,2,24.63,24.63,0,0,1-12.11-.83,12.43,12.43,0,0,1-9-11,16.72,16.72,0,0,1,2.5-11.67,14.19,14.19,0,0,1,9.86-6.23,17.41,17.41,0,0,1,10,1,10.14,10.14,0,0,1,6.16,6.59,11.43,11.43,0,0,1,.24,4.32,17.48,17.48,0,0,1-1.14,5.14.64.64,0,0,1-.69.46c-5.23,0-10.45,0-15.68,0Zm0-5.17h1.26c2.24,0,4.48,0,6.72,0,.16,0,.43-.1.46-.21.5-1.6.15-3.34-1.72-4a6,6,0,0,0-1.68-.32A4.73,4.73,0,0,0,99.82,58Z"/><path class="cls-1" d="M237.54,63.12a4.89,4.89,0,0,0,3.35,3.78,11.82,11.82,0,0,0,4.66.34,26.8,26.8,0,0,0,7.94-1.87c.28,1.1.55,2.18.81,3.26.32,1.29.62,2.59,1,3.88.12.45,0,.64-.4.82a28,28,0,0,1-7,2,25.1,25.1,0,0,1-11.49-.65,12.92,12.92,0,0,1-7.87-5.9,15.19,15.19,0,0,1-1.83-8A16,16,0,0,1,229.3,52a14.31,14.31,0,0,1,9.95-6.34,17.46,17.46,0,0,1,10.05,1,10.1,10.1,0,0,1,6.14,6.6,11.11,11.11,0,0,1,.27,4,18.07,18.07,0,0,1-1.17,5.43.64.64,0,0,1-.7.46c-5.2,0-10.41,0-15.62,0Zm0-5.17h8.17a.37.37,0,0,0,.28-.2c.45-1.47.24-3.22-1.57-4a6,6,0,0,0-1.83-.38A4.73,4.73,0,0,0,237.49,58Z"/><path class="cls-3" d="M41.43,45.34a20.13,20.13,0,0,1,7.17,1.21,11.35,11.35,0,0,1,7.29,8.12A18.09,18.09,0,0,1,54,68.84a13.57,13.57,0,0,1-10.89,6.78A15.35,15.35,0,0,1,34.22,74a14,14,0,0,1-6.59-7.6,18.78,18.78,0,0,1-.8-11.21c1.13-4.89,4.25-7.86,9-9.17A22.39,22.39,0,0,1,41.43,45.34Zm4.86,14.38c0-.24,0-.7-.07-1.16-.24-3-1.81-4.59-4.68-4.67-2.46-.08-4.09,1-4.65,3.33a11.1,11.1,0,0,0,.44,6.88,4.78,4.78,0,0,0,2.32,2.66,4.17,4.17,0,0,0,5.59-2.05A10.42,10.42,0,0,0,46.29,59.72Z"/><path class="cls-3" d="M72.89,66.34l4.87-20.79L89.55,47l-.16.47Q84.19,61.39,79,75.25c-.14.39-.32.46-.71.43-3.44-.3-6.89-.61-10.34-.85a1.44,1.44,0,0,1-1.48-1.06q-4.92-13.06-9.94-26.11L56.29,47l11.84-1.49q2.34,10.39,4.67,20.78Z"/><path class="cls-1" d="M178,65.14c.69,2.46,1.38,4.9,2,7.35a.66.66,0,0,1-.25.5,9.94,9.94,0,0,1-3.23,1.55,18.68,18.68,0,0,1-10.58.17A8,8,0,0,1,160,67.83a23.25,23.25,0,0,1-.29-3.44c0-2.74,0-5.47,0-8.21v-.6h-4.43V47.33h2.87c.61,0,1.35.17,1.78-.11s.53-1,.76-1.56c.7-1.6,1.38-3.21,2.09-4.8.07-.17.3-.39.46-.39,2.16,0,4.32,0,6.48,0l.2,0v6.82h8.91v8.23H170a2,2,0,0,0-.06.33c0,2.31,0,4.62.07,6.93a7.28,7.28,0,0,0,.24,1.6,2.65,2.65,0,0,0,2.69,2.19A8.93,8.93,0,0,0,178,65.14Z"/><path class="cls-3" d="M0,74.71V40H10.19v25.7L25.08,65l-.49,10.22Z"/><path class="cls-1" d="M225,74.7H214.74a27.22,27.22,0,0,1-.54-2.86c-.18-2.28-.38-4.57-.39-6.86,0-8.82,0-17.64,0-26.46V38L224,37v.64q0,13.41,0,26.81a46.78,46.78,0,0,0,.76,9.15C224.83,74,224.91,74.3,225,74.7Z"/></g></g></svg>