<svg id="Group_158" data-name="Group 158" xmlns="http://www.w3.org/2000/svg" width="35.537" height="27.12" viewBox="0 0 35.537 27.12">
  <path id="Path_24" data-name="Path 24" d="M1236.63,372.945l-7.613,15.655h-14.575l-1.382-5.449h15.387l1.473-3.027h-20.75l.767,3.027,1.382,5.449.767,3.027h18.823l7.618-15.655h6.18v-3.027Z" transform="translate(-1209.17 -372.945)" fill="#1d1d1e"/>
  <path id="Path_25" data-name="Path 25" d="M1220.282,412.935a3.472,3.472,0,1,0,3.472,3.473A3.472,3.472,0,0,0,1220.282,412.935Zm0,4.422a.95.95,0,1,1,.95-.949A.951.951,0,0,1,1220.282,417.357Z" transform="translate(-1212.955 -392.76)" fill="#1d1d1e"/>
  <path id="Path_26" data-name="Path 26" d="M1247.7,412.935a3.472,3.472,0,1,0,3.473,3.473A3.472,3.472,0,0,0,1247.7,412.935Zm0,4.422a.95.95,0,1,1,.95-.949A.95.95,0,0,1,1247.7,417.357Z" transform="translate(-1226.539 -392.76)" fill="#1d1d1e"/>
</svg>
