<svg xmlns="http://www.w3.org/2000/svg" width="25.59" height="34.88" viewBox="0 0 25.59 34.88">
  <path id="Path_69" data-name="Path 69" d="M737.26,460.56a12.8,12.8,0,0,0-12.8,12.79,13.035,13.035,0,0,0,.08,1.41c0,.01.01.02.01.03a12.881,12.881,0,0,0,.95,3.62c1.9,5.23,6.03,10.98,11.53,17.03,6.92-6.47,11.31-13.32,12.85-20.68a10.974,10.974,0,0,0,.17-1.41A12.8,12.8,0,0,0,737.26,460.56Zm-.01,20.1-7.07-7.07,3.54-3.53,3.53,3.53,3.54-3.53,3.53,3.53Z" transform="translate(-724.46 -460.56)" fill="#fff"/>
</svg>
