<svg xmlns="http://www.w3.org/2000/svg" width="134.951" height="171.519" viewBox="0 0 134.951 171.519">
  <g id="Group_10" data-name="Group 10" transform="translate(-545.951 -191.29)">
    <path id="Path_20" data-name="Path 20" d="M590.159,247.332l-3.508,6.167h7.012Z" transform="translate(-2.813 -3.873)" fill="#325aff"/>
    <path id="Path_21" data-name="Path 21" d="M577.509,247.34,574,253.531h7.053Z" transform="translate(-1.939 -3.873)" fill="#325aff"/>
    <path id="Path_22" data-name="Path 22" d="M581.027,264.011l-3.521-6.145L574,264.011Z" transform="translate(-1.938 -4.601)" fill="#325aff"/>
    <path id="Path_23" data-name="Path 23" d="M593.475,263.949c-1.158-2.1-2.189-3.971-3.285-5.958-1.192,2.041-2.309,3.953-3.479,5.958Z" transform="translate(-2.817 -4.609)" fill="#325aff"/>
    <path id="Path_24" data-name="Path 24" d="M636.814,247.332c-1.247,2.193-2.35,4.132-3.508,6.167h7.012Z" transform="translate(-6.037 -3.873)" fill="#325aff"/>
    <path id="Path_25" data-name="Path 25" d="M624.164,247.34l-3.506,6.191h7.053Z" transform="translate(-5.163 -3.873)" fill="#325aff"/>
    <path id="Path_26" data-name="Path 26" d="M627.682,264.011l-3.521-6.145-3.507,6.145Z" transform="translate(-5.163 -4.601)" fill="#325aff"/>
    <path id="Path_27" data-name="Path 27" d="M640.13,263.949l-3.285-5.958c-1.192,2.041-2.309,3.953-3.479,5.958Z" transform="translate(-6.041 -4.609)" fill="#325aff"/>
    <path id="Path_28" data-name="Path 28" d="M647.231,221.613H560.507a6.215,6.215,0,0,0-6.209,6.208V350.739a6.216,6.216,0,0,0,6.209,6.209h86.724a6.215,6.215,0,0,0,6.208-6.209V227.821A6.214,6.214,0,0,0,647.231,221.613Zm4.346,129.126a4.352,4.352,0,0,1-4.346,4.347H560.507a4.352,4.352,0,0,1-4.347-4.347V227.821a4.352,4.352,0,0,1,4.347-4.346h86.724a4.352,4.352,0,0,1,4.346,4.346Z" transform="translate(-0.577 -2.096)" fill="#325aff"/>
    <path id="Path_29" data-name="Path 29" d="M640.718,227.485a7.393,7.393,0,0,0-7.015,5.067h-59a7.394,7.394,0,1,0,0,4.654h59a7.392,7.392,0,1,0,7.015-9.721Zm-73.03,10.134a2.74,2.74,0,1,1,2.74-2.74A2.743,2.743,0,0,1,567.687,237.619Zm73.03,0a2.74,2.74,0,1,1,2.739-2.74A2.743,2.743,0,0,1,640.718,237.619Z" transform="translate(-0.991 -2.501)" fill="#325aff"/>
    <path id="Path_30" data-name="Path 30" d="M640.718,268.418a7.393,7.393,0,0,0-7.015,5.067h-59a7.394,7.394,0,1,0,0,4.654h59a7.392,7.392,0,1,0,7.015-9.721Zm-73.03,10.134a2.74,2.74,0,1,1,2.74-2.74A2.743,2.743,0,0,1,567.687,278.552Zm73.03,0a2.74,2.74,0,1,1,2.739-2.74A2.743,2.743,0,0,1,640.718,278.552Z" transform="translate(-0.991 -5.33)" fill="#325aff"/>
    <path id="Path_31" data-name="Path 31" d="M644.5,292.187H564.02a2.327,2.327,0,0,0,0,4.654H644.5a2.327,2.327,0,0,0,0-4.654Z" transform="translate(-1.088 -6.973)" fill="#325aff"/>
    <path id="Path_32" data-name="Path 32" d="M644.5,306.756H564.02a2.327,2.327,0,0,0,0,4.654H644.5a2.327,2.327,0,0,0,0-4.654Z" transform="translate(-1.088 -7.979)" fill="#325aff"/>
    <path id="Path_33" data-name="Path 33" d="M644.5,321.324H564.02a2.327,2.327,0,0,0,0,4.654H644.5a2.327,2.327,0,0,0,0-4.654Z" transform="translate(-1.088 -8.986)" fill="#325aff"/>
    <path id="Path_34" data-name="Path 34" d="M644.5,335.893H564.02a2.327,2.327,0,0,0,0,4.654H644.5a2.327,2.327,0,0,0,0-4.654Z" transform="translate(-1.088 -9.993)" fill="#325aff"/>
    <path id="Path_35" data-name="Path 35" d="M644.5,350.46H564.02a2.327,2.327,0,0,0,0,4.654H644.5a2.327,2.327,0,0,0,0-4.654Z" transform="translate(-1.088 -11)" fill="#325aff"/>
    <path id="Path_36" data-name="Path 36" d="M605.186,248.527h4.349v-4.35h-4.349Z" transform="translate(-4.093 -3.655)" fill="#325aff"/>
    <path id="Path_37" data-name="Path 37" d="M605.225,257.9h4.348v-4.328h-4.348Z" transform="translate(-4.096 -4.304)" fill="#325aff"/>
    <path id="Path_38" data-name="Path 38" d="M605.237,267.821h4.351v-4.357h-4.351Z" transform="translate(-4.097 -4.988)" fill="#325aff"/>
    <path id="Path_39" data-name="Path 39" d="M680.9,191.29H566.216v20.27H545.951V362.809H660.632V342.542H680.9Zm-130.3,166.865V216.215h103.25a7.368,7.368,0,0,0,2.122,2.1V358.155ZM660.632,247.562a2.728,2.728,0,0,1,0,5.308Zm-3.32-36a2.737,2.737,0,1,1,3.32,3.208V211.56Zm-73.038,0a2.741,2.741,0,0,1,5.371,0Zm76.358,112.289h3.048a2.327,2.327,0,0,0,0-4.654h-3.048v-8.909h3.048a2.327,2.327,0,0,0,0-4.654h-3.048v-8.909h3.048a2.327,2.327,0,0,0,0-4.654h-3.048v-8.9h3.048a2.327,2.327,0,0,0,0-4.654h-3.048v-8.909h3.048a2.327,2.327,0,0,0,0-4.654h-3.048v-7.377a7.386,7.386,0,0,0,0-14.717V219.473a7.393,7.393,0,1,0-7.658-9.686h-59a7.387,7.387,0,0,0-14.382,1.773H575.85v-6.1a4.352,4.352,0,0,1,4.347-4.347H666.92a4.358,4.358,0,0,1,4.347,4.347V328.373a4.352,4.352,0,0,1-4.347,4.347h-6.287Zm15.615,14.038H660.632v-3.3h6.287a6.214,6.214,0,0,0,6.209-6.209V205.458a6.213,6.213,0,0,0-6.209-6.209H580.2a6.213,6.213,0,0,0-6.209,6.209v6.1H570.87V195.944H676.247Z" fill="#325aff"/>
  </g>
</svg>
