<svg xmlns="http://www.w3.org/2000/svg" width="32.685" height="43.861" viewBox="0 0 32.685 43.861">
  <g id="Group_408" data-name="Group 408" transform="translate(-862 -536)">
    <path id="Path_223" data-name="Path 223" d="M778.986,254.969h0l-4.58-4.58h2.55v-4.861H766.109v10.849h4.861v-2.55l4.594,4.594A12.586,12.586,0,0,1,778.986,254.969Z" transform="translate(95.891 290.473)" fill="#e83f8b"/>
    <path id="Path_224" data-name="Path 224" d="M802.249,268.845a12.686,12.686,0,0,0-12.684-12.67,12.725,12.725,0,0,0-10.549,5.655,12.886,12.886,0,0,0-1.563,3.283,12.68,12.68,0,0,0,9.686,16.164v3.229h-4.786v4.86h4.786V292.8H792v-3.433h4.785v-4.86H792v-3.229A12.694,12.694,0,0,0,802.249,268.845Zm-3.609-2.121,1.047,1.047,1.026-1.02.972.972-1.02,1.02,1.006,1.013-.924.931-1.006-1.006-1.04,1.026-.973-.972,1.04-1.033-1.06-1.054Zm-9.074,9.938a7.813,7.813,0,1,1,7.817-7.817A7.824,7.824,0,0,1,789.565,276.662Z" transform="translate(92.437 287.063)" fill="#e83f8b"/>
  </g>
</svg>
