<svg xmlns="http://www.w3.org/2000/svg" width="35.537" height="35.04" viewBox="0 0 35.537 35.04">
  <g id="Group_711" data-name="Group 711" transform="translate(-1691 -21)">
    <path id="Path_27" data-name="Path 27" d="M8.622,0A2.855,2.855,0,0,0,5.768,2.855v8.7H5.6A5.6,5.6,0,0,0,0,17.15a1.3,1.3,0,0,0,1.3,1.3h8.878a1.3,1.3,0,0,0,1.3-1.3V2.855A2.855,2.855,0,0,0,8.622,0Z" transform="matrix(0.899, 0.438, -0.438, 0.899, 1708.437, 21)" fill="#e83f8b"/>
    <path id="Path_28" data-name="Path 28" d="M7.7,0H.7a.7.7,0,1,0,0,1.4h7A.7.7,0,1,0,7.7,0Z" transform="matrix(0.899, 0.438, -0.438, 0.899, 1701.9, 38.938)" fill="#e83f8b"/>
    <path id="Path_24" data-name="Path 24" d="M1236.63,372.945l-7.613,15.655h-14.575l-1.382-5.449h15.387l1.473-3.027h-20.75l.767,3.027,1.382,5.449.767,3.027h18.823l7.618-15.655h6.18v-3.027Z" transform="translate(481.829 -344.025)" fill="#fff"/>
    <path id="Path_25" data-name="Path 25" d="M1220.282,412.935a3.472,3.472,0,1,0,3.472,3.473A3.472,3.472,0,0,0,1220.282,412.935Zm0,4.422a.95.95,0,1,1,.95-.949A.951.951,0,0,1,1220.282,417.357Z" transform="translate(478.044 -363.84)" fill="#fff"/>
    <path id="Path_26" data-name="Path 26" d="M1247.7,412.935a3.472,3.472,0,1,0,3.473,3.473A3.472,3.472,0,0,0,1247.7,412.935Zm0,4.422a.95.95,0,1,1,.95-.949A.95.95,0,0,1,1247.7,417.357Z" transform="translate(464.46 -363.84)" fill="#fff"/>
  </g>
</svg>
