<svg xmlns="http://www.w3.org/2000/svg" width="183.928" height="46.528" viewBox="0 0 183.928 46.528">
  <g id="Group_283" data-name="Group 283" transform="translate(-140 -18)">
    <g id="Group_1" data-name="Group 1" transform="translate(-725.178 -344.172)">
      <path id="Path_1" data-name="Path 1" d="M1113.6,391.534l1.031,1.031,1.1-1.093,1.073,1.073.98-.99-1.073-1.073,1.083-1.083-1.031-1.031-1.083,1.083-1.114-1.114-.99.98,1.124,1.124Z" transform="translate(-69.29 -7.299)" fill="none"/>
      <path id="Path_2" data-name="Path 2" d="M1104.449,389.088a.953.953,0,0,0,1.059-.908,1.049,1.049,0,1,0-1.059.908Z" transform="translate(-66.461 -7.017)" fill="none"/>
      <path id="Path_3" data-name="Path 3" d="M939.642,398.668a1.459,1.459,0,0,0-1-1.722,2.961,2.961,0,0,0-.494-.115,2.328,2.328,0,0,0-2.445,1.063,3.214,3.214,0,0,0-.431,1.213h4.277C939.578,398.958,939.615,398.814,939.642,398.668Z" transform="translate(-19.551 -9.658)" fill="none"/>
      <path id="Path_4" data-name="Path 4" d="M916.82,398.642a1.443,1.443,0,0,0-.942-1.67,2.682,2.682,0,0,0-1.968.019,2.378,2.378,0,0,0-1.376,1.7c-.039.133-.063.271-.1.42h4.283C916.754,398.947,916.793,398.8,916.82,398.642Z" transform="translate(-13.182 -9.658)" fill="none"/>
      <path id="Path_5" data-name="Path 5" d="M1098.4,379.97a8.288,8.288,0,1,0,8.292,8.285A8.289,8.289,0,0,0,1098.4,379.97Zm-2.307,13.116h-2.242v-5.552l-.8.764-1.579-1.565,3.064-3.346h1.557Zm4.644.195c-1.81,0-3.627-1.045-3.627-3.151a2.3,2.3,0,0,1,1.4-2.105,2.006,2.006,0,0,1-1.06-1.853,3.038,3.038,0,0,1,3.346-2.942,3,3,0,0,1,3.245,2.956,2.158,2.158,0,0,1-1.06,1.81,2.3,2.3,0,0,1,1.435,2.134C1104.411,392.235,1102.565,393.281,1100.734,393.281Z" transform="translate(-62.747 -4.965)" fill="none"/>
      <path id="Path_6" data-name="Path 6" d="M1104.42,392.63c-.688-.014-1.389.33-1.389,1.031,0,.73.674,1.087,1.348,1.073a1.183,1.183,0,0,0,1.293-1.073C1105.671,392.987,1105.052,392.643,1104.42,392.63Z" transform="translate(-66.349 -8.496)" fill="none"/>
      <path id="Path_7" data-name="Path 7" d="M872.811,386.907q-2.887.108-5.774.219c-.619.022-1.239.035-1.859.053v17.594h5.177V400.01l6.5.223v-4.887l-6.487.248v-3.66l8.245.174v-5.4c-.082,0-.152,0-.223,0Q875.6,386.805,872.811,386.907Z" transform="translate(0 -6.843)" fill="#ef3f87"/>
      <path id="Path_8" data-name="Path 8" d="M918.458,401.289a.74.74,0,0,0-.087.022,12.381,12.381,0,0,1-5.177.937,4.606,4.606,0,0,1-1.132-.2,2.446,2.446,0,0,1-1.68-1.9h.267c2.646,0,5.293-.007,7.932.007a.383.383,0,0,0,.432-.3,9.686,9.686,0,0,0,.584-3.648,4.068,4.068,0,0,0-.44-1.817,5.4,5.4,0,0,0-3.151-2.711,9.04,9.04,0,0,0-5.192-.267,7.092,7.092,0,0,0-5.264,4.413,8.774,8.774,0,0,0-.44,5.213,6.118,6.118,0,0,0,3.706,4.608,11.2,11.2,0,0,0,4.052.88,12.994,12.994,0,0,0,4.182-.49c.743-.209,1.464-.512,2.192-.772.13-.043.166-.123.13-.267-.195-.728-.368-1.457-.541-2.185C918.7,402.305,918.58,401.8,918.458,401.289Zm-8.025-4.175a2.366,2.366,0,0,1,1.377-1.694,2.689,2.689,0,0,1,1.968-.022,1.448,1.448,0,0,1,.945,1.673c-.029.151-.065.3-.1.461h-4.283C910.368,397.381,910.4,397.244,910.432,397.114Z" transform="translate(-11.082 -8.084)" fill="#ef3f87"/>
      <path id="Path_9" data-name="Path 9" d="M941.28,401.289a.582.582,0,0,0-.079.022,12.414,12.414,0,0,1-5.184.937,4.73,4.73,0,0,1-1.132-.2,2.426,2.426,0,0,1-1.673-1.9h.26c2.646,0,5.293-.007,7.939.007a.392.392,0,0,0,.433-.3,9.871,9.871,0,0,0,.584-3.656,4.265,4.265,0,0,0-.44-1.81,5.39,5.39,0,0,0-3.158-2.711,9.016,9.016,0,0,0-5.184-.267,7.1,7.1,0,0,0-5.271,4.413,8.893,8.893,0,0,0-.44,5.213,6.142,6.142,0,0,0,3.713,4.608,11.168,11.168,0,0,0,4.052.88,12.993,12.993,0,0,0,4.182-.49c.743-.209,1.456-.512,2.192-.772.123-.043.159-.123.123-.267-.187-.728-.36-1.457-.541-2.185C941.532,402.305,941.41,401.8,941.28,401.289Zm-7.686-4.968a2.328,2.328,0,0,1,2.452-1.06,2.826,2.826,0,0,1,.49.108,1.459,1.459,0,0,1,1,1.723,4.345,4.345,0,0,1-.094.44h-4.276A3.2,3.2,0,0,1,933.593,396.321Z" transform="translate(-17.45 -8.084)" fill="#ef3f87"/>
      <path id="Path_10" data-name="Path 10" d="M1015.138,401.281a13.435,13.435,0,0,1-3.266.872,8.534,8.534,0,0,1-2.675.022,2.5,2.5,0,0,1-2.12-2.033h.245c2.668,0,5.343,0,8.011.007a.3.3,0,0,0,.324-.216,9.53,9.53,0,0,0,.62-3.721,4.065,4.065,0,0,0-.447-1.831,5.323,5.323,0,0,0-3.137-2.7,9.043,9.043,0,0,0-5.192-.281,7.118,7.118,0,0,0-5.271,4.413,8.82,8.82,0,0,0-.44,5.228,6.129,6.129,0,0,0,3.7,4.593,11.21,11.21,0,0,0,4.052.887,14.1,14.1,0,0,0,4.182-.476,11.813,11.813,0,0,0,2.206-.786.193.193,0,0,0,.123-.26c-.216-.836-.418-1.673-.62-2.509C1015.332,402.089,1015.232,401.692,1015.138,401.281Zm-7.686-4.961a2.318,2.318,0,0,1,2.445-1.06,2.5,2.5,0,0,1,.512.115,1.464,1.464,0,0,1,.988,1.716c-.029.144-.065.288-.1.44h-4.276A3.21,3.21,0,0,1,1007.451,396.32Z" transform="translate(-38.051 -8.084)" fill="#fff"/>
      <path id="Path_11" data-name="Path 11" d="M991.4,388.775a.9.9,0,0,1,.883-.86,3.056,3.056,0,0,1,.738.03,3.683,3.683,0,0,1,1.44.572l1.249-3.9a.659.659,0,0,0-.066-.039,10.221,10.221,0,0,0-5.282-.764,4.278,4.278,0,0,0-2.74,1.456,6.217,6.217,0,0,0-1.39,3.628c-.038.394-.042.79-.063,1.211h-2.123v4.162h2.145v9.659h5.167v-9.676h3.6V390.1h-3.6c0-.251-.006-.479,0-.706A5.6,5.6,0,0,1,991.4,388.775Z" transform="translate(-33.158 -6.015)" fill="#fff"/>
      <path id="Path_12" data-name="Path 12" d="M957.469,387.395h-5.155v17.571l12.431.251c.084-1.731.167-3.435.251-5.165l-7.527.348Z" transform="translate(-24.306 -7.036)" fill="#fff"/>
      <path id="Path_13" data-name="Path 13" d="M895.994,391.951a6.46,6.46,0,0,0-3.036,3.375,15.815,15.815,0,0,0-.491-3.586H887.3c.04.181.079.345.113.511a23.509,23.509,0,0,1,.384,4.6q.007,4.486,0,8.972v.239h5.166v-.238c0-1.32-.018-2.638.008-3.957a12.861,12.861,0,0,1,.172-1.984,2.865,2.865,0,0,1,2.454-2.5,16.778,16.778,0,0,1,1.865-.206c.42-.031.844-.006,1.292-.006-.085-1.969-.169-3.889-.252-5.818A5.607,5.607,0,0,0,895.994,391.951Z" transform="translate(-6.172 -8.138)" fill="#ef3f87"/>
      <path id="Path_14" data-name="Path 14" d="M973.771,406.306h5.138V392.218l-5.138.25Z" transform="translate(-30.292 -8.381)" fill="#fff"/>
      <path id="Path_15" data-name="Path 15" d="M977.665,385.462a7.023,7.023,0,0,0-2.875.009,1.926,1.926,0,0,0-1.157.645,2.118,2.118,0,0,0-.385,1.629,1.632,1.632,0,0,0,1.1,1.436,5.673,5.673,0,0,0,1.906.307c.4-.037.793-.058,1.186-.112a1.825,1.825,0,0,0,1.8-1.893A1.8,1.8,0,0,0,977.665,385.462Z" transform="translate(-30.14 -6.457)" fill="#fff"/>
      <path id="Path_16" data-name="Path 16" d="M1028.714,404.441a4.8,4.8,0,0,0-2.74,0,2.328,2.328,0,0,0-1.689,1.68c-.066.235-.1.48-.149.72v.64c.014.077.032.154.042.231a2.453,2.453,0,0,0,1.715,2.174,4.57,4.57,0,0,0,2.831.028,2.338,2.338,0,0,0,1.673-1.748,4.067,4.067,0,0,0,.035-1.842A2.317,2.317,0,0,0,1028.714,404.441Z" transform="translate(-44.341 -11.735)" fill="#ef3f87"/>
      <path id="Path_17" data-name="Path 17" d="M1051.047,392.374l-3.328-3.737-5.842,6.12-.051-.022V384.695l-5.253.51v18.933h5.261v-.248c0-1.254,0-2.507,0-3.76a.335.335,0,0,1,.069-.231c.5-.427,1.012-.844,1.537-1.276l4.225,6.45,4.3-3.124-5.2-6.067Z" transform="translate(-47.811 -6.283)" fill="#fff"/>
      <path id="Path_18" data-name="Path 18" d="M1067.933,401.285q3.276-3,6.555-5.989a.4.4,0,0,0,.14-.328c0-1.187,0-2.373,0-3.56v-.237l-13.7-.512v5.273l6.753-.229c-.087.082-.135.132-.188.177q-3.441,3.007-6.885,6.009a.541.541,0,0,0-.209.457c.01,1.074.005,2.147.005,3.22v.247l14.231.512c.085-1.7.17-3.386.256-5.093l-7.1.2C1067.859,401.36,1067.894,401.321,1067.933,401.285Z" transform="translate(-54.454 -7.947)" fill="#fff"/>
      <path id="Path_19" data-name="Path 19" d="M1085.833,372.188h0l-4.858-4.858h2.7v-5.156h-11.509v11.509h5.157v-2.7l4.874,4.873A13.337,13.337,0,0,1,1085.833,372.188Z" transform="translate(-57.741)" fill="#fff"/>
      <path id="Path_20" data-name="Path 20" d="M1109.855,386.26a13.457,13.457,0,0,0-13.455-13.44,13.279,13.279,0,0,0-7.557,2.336,13.414,13.414,0,0,0-3.634,3.663,13.7,13.7,0,0,0-1.658,3.483,13.453,13.453,0,0,0,10.275,17.147v3.425h-5.076v5.155h5.076v3.641h5.155v-3.641h5.076v-5.155h-5.076v-3.425A13.466,13.466,0,0,0,1109.855,386.26Zm-3.829-2.25,1.11,1.11,1.089-1.082,1.031,1.031-1.082,1.082,1.067,1.074-.981.988-1.067-1.067-1.1,1.089-1.031-1.031,1.1-1.1-1.125-1.118Zm-9.626,10.542a8.288,8.288,0,1,1,8.292-8.292A8.3,8.3,0,0,1,1096.4,394.553Z" transform="translate(-60.75 -2.97)" fill="#ef3f87"/>
      <path id="Path_21" data-name="Path 21" d="M1091.991,388.057l1.582,1.567.8-.77v5.556h2.242v-9.7h-1.554Z" transform="translate(-63.269 -6.288)" fill="#fff"/>
      <path id="Path_22" data-name="Path 22" d="M1105.679,389.256a2.158,2.158,0,0,0,1.06-1.81,3,3,0,0,0-3.245-2.956,3.038,3.038,0,0,0-3.346,2.942,2.006,2.006,0,0,0,1.06,1.853,2.3,2.3,0,0,0-1.4,2.105c0,2.105,1.817,3.151,3.627,3.151,1.832,0,3.677-1.046,3.677-3.151A2.3,2.3,0,0,0,1105.679,389.256Zm-2.242-2.718a.927.927,0,0,1,1.06.851.951.951,0,0,1-1.06.908.889.889,0,1,1,0-1.759Zm.043,5.927a1.179,1.179,0,0,1-1.348-1.074c0-.7.7-1.046,1.392-1.031.627.014,1.247.361,1.247,1.031A1.184,1.184,0,0,1,1103.48,392.465Z" transform="translate(-65.45 -6.225)" fill="#fff"/>
    </g>
  </g>
</svg>
