<svg xmlns="http://www.w3.org/2000/svg" width="73.373" height="65.67" viewBox="0 0 73.373 65.67">
  <g id="Group_130" data-name="Group 130" transform="translate(-464.627 -664.798)">
    <rect id="Rectangle_68" data-name="Rectangle 68" width="1.445" height="10.068" transform="translate(468.661 668.497)" fill="#fff"/>
    <rect id="Rectangle_69" data-name="Rectangle 69" width="1.445" height="10.068" transform="translate(494.118 668.497)" fill="#fff"/>
    <rect id="Rectangle_70" data-name="Rectangle 70" width="1.445" height="10.068" transform="translate(481.39 668.497)" fill="#fff"/>
    <rect id="Rectangle_71" data-name="Rectangle 71" width="1.445" height="10.068" transform="translate(475.025 668.497)" fill="#fff"/>
    <rect id="Rectangle_72" data-name="Rectangle 72" width="1.445" height="10.068" transform="translate(487.754 668.497)" fill="#fff"/>
    <rect id="Rectangle_73" data-name="Rectangle 73" width="1.445" height="10.068" transform="translate(500.483 668.497)" fill="#fff"/>
    <rect id="Rectangle_74" data-name="Rectangle 74" width="1.445" height="10.068" transform="translate(513.212 668.497)" fill="#fff"/>
    <rect id="Rectangle_75" data-name="Rectangle 75" width="1.445" height="10.068" transform="translate(506.847 668.497)" fill="#fff"/>
    <rect id="Rectangle_76" data-name="Rectangle 76" width="1.445" height="10.068" transform="translate(519.576 668.497)" fill="#fff"/>
    <path id="Path_113" data-name="Path 113" d="M318.461,467.009l-11.935-11.935V409.73h-60v60h39.2a4.926,4.926,0,0,0,4.7,3.482h20.143a.7.7,0,0,0,.173-.014l.766.766a4.915,4.915,0,1,0,6.95-6.95Zm-70.486-55.834H305.08v14.594H247.975Zm42.453,52.192a4.927,4.927,0,0,0-4.913,4.913h-37.54V427.214H305.08v26.414l-.853-.853a4.915,4.915,0,0,0-6.95,6.95l3.641,3.641Zm10.794,8.4v-6.95h1.142l6.95,6.95Zm16.227,1.185a3.5,3.5,0,0,1-4.913,0l-1.257-1.257-5.346-5.361,1.517-1.517,1.431-1.445,1.951-1.951,6.618,6.618A3.5,3.5,0,0,1,317.449,472.947Z" transform="translate(218.098 255.068)" fill="#fff"/>
  </g>
</svg>
