<svg xmlns="http://www.w3.org/2000/svg" width="100.149" height="59.677" viewBox="0 0 100.149 59.677">
  <path id="Path_3069" data-name="Path 3069" d="M609.9-629.057h.724c6.566,0,2.52,0,9.087.013a1.308,1.308,0,0,0,1.027-.432,29.263,29.263,0,0,1,19.434-8.9,29.413,29.413,0,0,1,22.4,8.034,5.155,5.155,0,0,1,.663.677,2.027,2.027,0,0,0,1.958.655c.632-.029,1.263-.04,1.895-.04,5.659,0,.7,0,6.359,0h.841c0-.953.016-1.857-.005-2.759a4.519,4.519,0,0,1,1.409-3.632,4.026,4.026,0,0,1,2.783-1.149c3.165-.011,6.33-.026,9.5,0a4.287,4.287,0,0,1,4.181,4.357q0,22.637,0,45.273c0,.692.008,1.385.005,2.078a4.285,4.285,0,0,1-4.168,4.253q-4.716.048-9.435-.005a4.284,4.284,0,0,1-4.264-4.341c-.011-1.042,0-2.085,0-3.162-.257-.013-.448-.029-.642-.029-6.625,0-2.64-.005-9.265.011a1.261,1.261,0,0,0-.82.316,29.091,29.091,0,0,1-15.471,8.456c-9.777,1.886-18.445-.528-25.974-7.031-.507-.438-.944-.963-1.47-1.377a1.875,1.875,0,0,0-1.032-.425c-1.3-.027-2.6.042-3.9.045-5.3.008.011,0-5.291,0-.154,0-.3.016-.523.027,0,.96,0,1.884,0,2.807a4.339,4.339,0,0,1-4.627,4.707q-4.454.028-8.9-.005a4.3,4.3,0,0,1-4.362-4.484q-.008-9.285,0-18.572,0-14.244,0-28.484a4.34,4.34,0,0,1,4.378-4.42c2.988-.011,5.975-.005,8.962,0a4.345,4.345,0,0,1,4.553,4.489C609.913-631.126,609.9-630.139,609.9-629.057Zm.037,3.736v33.4h.8c7.081,0,3.547.005,10.629-.005a1.256,1.256,0,0,1,1.066.464,24.972,24.972,0,0,0,6.2,5.2,25.61,25.61,0,0,0,17.139,3.481,25.753,25.753,0,0,0,15.967-8.652,1.335,1.335,0,0,1,1.112-.5c7.118.016,3.627.011,10.745.011.212,0,.425-.019.666-.029v-33.334c-.226-.011-.419-.026-.61-.026-7.081,0-3.55,0-10.628.008a1.5,1.5,0,0,1-1.292-.555,14.779,14.779,0,0,0-1.326-1.348,25.646,25.646,0,0,0-21.477-7.3,25.474,25.474,0,0,0-16.566,8.822,1,1,0,0,1-.857.372c-6.644-.008-2.677-.005-9.323-.008Zm-8.991,26.009h5.136v-3.709h-5.131v-3.76h5.134v-3.7h-5.129v-3.762h5.126v-3.709h-5.129v-3.76h5.129v-3.7h-5.134v-3.746h5.179c0-.979,0-1.868,0-2.757,0-.8-.159-.963-.971-.966q-4.123-.008-8.249-.005c-1,0-1.12.125-1.122,1.122v33.409q0,6.559-.005,13.115c0,.512.125.873.7.876,2.985.005,5.972.016,8.96-.019.228,0,.637-.324.647-.515.064-1.037.032-2.083.032-3.189h-5.155v-3.76h5.123v-3.707h-5.139Zm82.293,7.49v3.759H678.06c0,1.016,0,1.945,0,2.871,0,.65.183.828.857.83q4.3,0,8.6-.005c.7,0,.875-.183.875-.876q0-23.345,0-46.69c0-.767-.172-.942-.937-.945-2.216-.008-4.431-.005-6.646-.008-.653,0-1.305-.016-1.958,0-.366.011-.77.085-.783.547-.032,1.043-.01,2.085-.01,3.216h5.166v3.741h-5.137v3.7h5.139v3.754h-5.142v3.7h5.144v3.778h-5.147v3.693h5.134v3.783H678.1v3.709h5.134v3.736H678.1v3.706Z" transform="translate(-592.002 638.444)" fill="#d9d9d9"/>
</svg>
