<svg xmlns="http://www.w3.org/2000/svg" width="75.111" height="88.944" viewBox="0 0 75.111 88.944">
  <path id="Path_3071" data-name="Path 3071" d="M734.417-641.657l-.133-.13-45.748,16.611-1.908.7v44.8l26.46,26.693.138.138,16.457-6.5-.146-26.7,2.7-.86,5.365,5.779v10.676l7.079,6.32.138.122,16.924-7.153v-43.509Zm-22.1,84.651-23.39-23.621v-40.217l23.024,23.6Zm14.839-44.467.207,40.567-12.732,5.022-.369-41.026Zm-4.258-9-6.827,2.7-11.629-11.345,26.518-9.875.448,39.935-1.894.608L729.45-602.5v-1.061Zm3.34,6.882-12.833,4.548-23.557-24.162,43.857-15.911,24.738,24.435-12.834,4.29-4.492-3.42,7.2-2.6-15.8-15.431-.133-.13-32.146,11.968L715.4-605.221l.135.133,6.766-2.672Zm19.965,36.513.332-41.2,12.894-4.3v39.9Zm-2.133-50.256-6.477,2.353V-584.5l-3.868-4.179-.446-39.192Zm.162,8.785-.329,40.657-4.006-3.587v-40.362Z" transform="translate(-686.628 641.787)" fill="#858687"/>
</svg>
