<svg xmlns="http://www.w3.org/2000/svg" width="88" height="75.451" viewBox="0 0 88 75.451">
  <path id="Path_116" data-name="Path 116" d="M366.3,399.53c-21.33,0-43.994,3.781-43.994,10.8a3.264,3.264,0,0,0,.265,1.275l.013.015a18.578,18.578,0,0,0,7.669,10.527c3,2.005,7.3,13.019,11.452,23.661,5,12.775,9.719,24.85,13.845,27.2a13.6,13.6,0,0,0,6.664,1.976,9.077,9.077,0,0,0,2.445-.335h.01l.009-.007a7.735,7.735,0,0,0,3.143-1.679l.013-.013c1.1-.617,9.6-6.117,9.917-29.061,6.731-9.61,14.823-19.164,19.1-20.74,8.079-2.993,13.156-6.13,13.447-12.488a2.426,2.426,0,0,0,.013-.316v-.015C410.311,403.311,387.633,399.53,366.3,399.53Zm-42.461,11.644-.013-.013c-.092-.345-.145-.6-.184-.76a.224.224,0,0,0-.013-.1c.079-4.411,17.574-9.339,42.672-9.339,1.374,0,2.723.015,4.059.042,1.693,6.789,2.974,12.947,3.9,18.519-2.552.114-5.211.172-7.96.172C342.753,419.7,325.894,415.37,323.843,411.174Zm40.921,57.7v0h0Zm2.663,2.673c-.687-.487-2.485-2.463-.488-8.937,1.058-3.409,4.774-9.854,9.349-16.585C375.494,464.955,368.843,470.569,367.427,471.543Zm28.986-49.756c-4.47,1.647-12.073,10.514-18.658,19.722-.463.674-.938,1.332-1.4,2.005-2.409,3.485-4.619,6.943-6.417,10.018v0c-15.089,15.089-23.682.094-23.733,0-1.109-2.736-2.211-5.553-3.28-8.285-4.43-11.359-8.609-22.071-11.98-24.321a17.259,17.259,0,0,1-5.872-6.63c6.664,4.468,24.37,6.832,41.23,6.832,2.723,0,5.474-.058,8.2-.187.449-.015.9-.042,1.348-.057,14.216-.759,27.412-3.166,32.371-7.076C406.621,417.348,402.51,419.539,396.413,421.787Zm12.575-11.443c-.026,3.868-13.329,8.092-33.362,9.124-.938-5.557-2.207-11.687-3.873-18.418,22.175.645,37.2,5.17,37.236,9.265Z" transform="translate(-322.31 -399.53)" fill="#fff"/>
</svg>
