<svg xmlns="http://www.w3.org/2000/svg" width="91" height="71.857" viewBox="0 0 91 71.857">
  <path id="Path_117" data-name="Path 117" d="M487.381,419.434l-7.212-10.54-18.518,2.673,15.761-4.817-5.235-6.781-.473.181c-16.123,5.806-20.662,10.888-21.038,11.333L396.38,465.77l6.07,6.056L456.374,417.9l21.553,12.043,5.151-8.41-18.7-4.72Zm-84.93,50.429-4.093-4.093,3.467-3.467,4.093,4.093Zm4.455-4.455-4.107-4.093,2.659-2.659,4.093,4.107Zm3.634-3.634-4.093-4.093,2.659-2.673L413.2,459.1Zm3.648-3.648-4.093-4.107,41.073-41.073,4.093,4.093Z" transform="translate(-396.382 -399.97)" fill="#fff"/>
</svg>
