<svg xmlns="http://www.w3.org/2000/svg" width="38.631" height="105.454" viewBox="0 0 38.631 105.454">
  <path id="Path_109" data-name="Path 109" d="M155.926,378.71a7.361,7.361,0,0,0-5.346,2.63c-12.412,12.947,9.161,36.688,14.031,55.024a25.257,25.257,0,0,1,.708,4.133.922.922,0,0,1-1.575.723l-.029-.029a37.523,37.523,0,0,1-4.956-7.124,1.757,1.757,0,0,1-.144-1.561,1.842,1.842,0,0,0,.159-.751,1.765,1.765,0,0,0-.549-1.257,2.311,2.311,0,0,0-1.084-.679,1.99,1.99,0,0,1-1.329-.881c-.477-.795-.954-1.575-1.445-2.312a1.924,1.924,0,0,1-.275-1.647,1.9,1.9,0,0,0-1.17-2.442,2.219,2.219,0,0,0-.665-.116,2.169,2.169,0,0,0-.289.029,1.244,1.244,0,0,1-.231.014A1.82,1.82,0,0,1,150.55,422a6.955,6.955,0,0,0-4.537-1.907,6.763,6.763,0,0,0-2.688.592c-9.363,4.046,2.89,21.5,13.684,27.064a20.273,20.273,0,0,0,7.283,1.994c-2.717,8.988-9.71,15.649-12.528,18.033a2.006,2.006,0,0,0-.665,1.17,2.058,2.058,0,0,0,.173,1.2l-.173.188c-4.292,5.346-6.026,10.722-3.858,12.889a3.612,3.612,0,0,0,2.644.939c3.367,0,8.554-2.818,13.222-7.471,6.011-6.011,8.944-12.875,6.762-15.635a116.6,116.6,0,0,1-11.935,17.585,1.991,1.991,0,0,1-3.295-.376l-2.789-5.578a1.851,1.851,0,0,1-.058-1.517l2.847,5.693a1.974,1.974,0,0,0,1.777,1.1,1.954,1.954,0,0,0,1.517-.723,117.07,117.07,0,0,0,11.935-17.571,88.316,88.316,0,0,0,4.927-10.534c.751-1.951,1.416-3.959,1.98-5.982a47.808,47.808,0,0,0,1.85-12.716C178.626,409.56,167.066,378.71,155.926,378.71Zm19.464,64.056c-.535,1.922-1.2,3.9-1.951,5.852a82.464,82.464,0,0,1-4.841,10.36,114.674,114.674,0,0,1-11.776,17.34.519.519,0,0,1-.4.2.538.538,0,0,1-.477-.3l-2.861-5.679-.448-.9-.058-.13a.61.61,0,0,1-.043-.318.541.541,0,0,1,.173-.318c2.962-2.514,10.144-9.363,12.976-18.712l.506-1.691-1.748-.173a18.655,18.655,0,0,1-6.762-1.835c-8.092-4.161-16.429-14.869-16.227-20.836a3.7,3.7,0,0,1,2.456-3.612,5.29,5.29,0,0,1,2.11-.477,5.5,5.5,0,0,1,3.6,1.561,3.275,3.275,0,0,0,2.124.809,3.938,3.938,0,0,0,.52-.043,1,1,0,0,1,.188.029.51.51,0,0,1,.289.332.445.445,0,0,1,0,.275,3.283,3.283,0,0,0,.433,2.919c.434.665.9,1.4,1.4,2.254a3.373,3.373,0,0,0,2.269,1.561s.116.029.361.289a.352.352,0,0,1,.13.217.4.4,0,0,1-.043.188,3.238,3.238,0,0,0,.217,2.861,38.521,38.521,0,0,0,5.231,7.456,2.341,2.341,0,0,0,1.662.694,2.408,2.408,0,0,0,1.763-.78,2.281,2.281,0,0,0,.607-1.777A24.625,24.625,0,0,0,166,436c-1.633-6.2-5.144-13-8.525-19.579-6.921-13.438-13.467-26.139-5.852-34.087a5.971,5.971,0,0,1,4.306-2.182c4.436,0,9.739,6.4,14.19,17.137,4.364,10.5,7.066,23.206,7.066,33.148A47.064,47.064,0,0,1,175.389,442.766Z" transform="translate(-139.996 -378.71)" fill="#1d1d1e"/>
</svg>
